<svg xmlns="http://www.w3.org/2000/svg" xmlns:xlink="http://www.w3.org/1999/xlink" width="500" zoomAndPan="magnify" viewBox="0 0 375 374.999991" height="500" preserveAspectRatio="xMidYMid meet" version="1.0"><defs><g/><clipPath id="id1"><path d="M 18.09375 118.457031 L 355.089844 118.457031 L 355.089844 221.714844 L 18.09375 221.714844 Z M 18.09375 118.457031 " clip-rule="nonzero"/></clipPath></defs><rect x="-37.5" width="450" fill="#ffffff" y="-37.499999" height="449.999989" fill-opacity="1"/><rect x="-37.5" width="450" fill="#ffffff" y="-37.499999" height="449.999989" fill-opacity="1"/><rect x="-37.5" width="450" fill="#ffffff" y="-37.499999" height="449.999989" fill-opacity="1"/><g clip-path="url(#id1)"><path fill="#080403" d="M 18.117188 118.457031 L 355.066406 118.457031 L 355.066406 221.714844 L 18.117188 221.714844 L 18.117188 118.457031 " fill-opacity="1" fill-rule="nonzero"/></g><g fill="#ffffff" fill-opacity="1"><g transform="translate(14.844329, 225.02511)"><g><path d="M 46.75 -11.410156 C 46.75 -5.070312 44.054688 -0.160156 35.257812 -0.160156 C 19.175781 -0.160156 5.46875 -31.296875 5.46875 -37.953125 L 4.515625 -37.953125 L 4.515625 -8.003906 C 13.707031 -1.347656 22.34375 1.503906 35.417969 1.503906 C 53.167969 1.503906 66.238281 -10.378906 66.238281 -26.066406 C 66.238281 -58.710938 22.738281 -53.007812 22.738281 -79.550781 C 22.738281 -86.445312 27.496094 -90.328125 33.515625 -90.328125 C 45.640625 -90.328125 59.347656 -73.925781 60.695312 -63.070312 L 61.484375 -63.070312 L 61.484375 -91.832031 L 60.695312 -91.832031 C 59.820312 -90.722656 57.683594 -90.328125 56.097656 -90.328125 C 47.539062 -90.328125 42.152344 -91.832031 33.59375 -91.832031 C 16.640625 -91.832031 3.566406 -83.910156 3.566406 -66.714844 C 3.566406 -32.882812 46.75 -39.378906 46.75 -11.410156 Z M 46.75 -11.410156 "/></g></g></g><g fill="#ffffff" fill-opacity="1"><g transform="translate(80.923176, 225.02511)"><g><path d="M 0.792969 -57.683594 L 0.792969 -56.890625 C 2.773438 -56.890625 6.101562 -53.878906 6.101562 -46.429688 L 6.101562 -11.09375 C 6.101562 -5.230469 4.675781 -1.742188 0.949219 -0.792969 L 0.949219 0 L 35.023438 0 L 35.023438 -0.792969 C 31.296875 -1.742188 29.871094 -5.230469 29.871094 -11.09375 L 29.871094 -64.496094 L 29.078125 -64.496094 C 28.839844 -64.339844 28.523438 -64.179688 28.128906 -64.019531 C 22.503906 -61.800781 8.875 -57.683594 0.792969 -57.683594 Z M 3.328125 -80.34375 C 3.328125 -72.261719 9.902344 -65.683594 17.90625 -65.683594 C 25.988281 -65.683594 32.566406 -72.261719 32.566406 -80.34375 C 32.566406 -88.347656 25.988281 -94.921875 17.90625 -94.921875 C 9.902344 -94.921875 3.328125 -88.347656 3.328125 -80.34375 Z M 3.328125 -80.34375 "/></g></g></g><g fill="#ffffff" fill-opacity="1"><g transform="translate(113.011514, 225.02511)"><g><path d="M 0.792969 -56.890625 C 2.773438 -56.890625 6.101562 -53.878906 6.101562 -46.429688 L 6.101562 -11.09375 C 6.101562 -5.230469 4.675781 -1.742188 0.949219 -0.792969 L 0.949219 0 L 35.023438 0 L 35.023438 -0.792969 C 31.296875 -1.742188 29.871094 -5.230469 29.871094 -11.09375 L 29.871094 -46.035156 C 29.871094 -51.421875 32.960938 -56.414062 37.953125 -56.414062 C 42.945312 -56.414062 43.816406 -50.789062 43.816406 -46.429688 L 43.816406 -11.09375 C 43.816406 -5.230469 42.390625 -1.742188 38.667969 -0.792969 L 38.667969 0 L 72.738281 0 L 72.738281 -0.792969 C 69.011719 -1.742188 67.585938 -5.230469 67.585938 -11.09375 C 67.585938 -16.640625 67.507812 -34.46875 67.507812 -46.113281 C 67.507812 -51.421875 70.597656 -56.414062 75.511719 -56.414062 C 80.5 -56.414062 81.375 -50.789062 81.375 -46.429688 L 81.375 -11.09375 C 81.375 -5.230469 79.949219 -1.742188 76.222656 -0.792969 L 76.222656 0 L 110.292969 0 L 110.292969 -0.792969 C 106.570312 -1.742188 105.144531 -5.230469 105.144531 -11.09375 L 105.144531 -43.421875 C 105.144531 -51.660156 103.003906 -64.496094 86.839844 -64.496094 C 77.175781 -64.496094 69.328125 -58.078125 66.875 -51.105469 C 65.289062 -57.921875 60.929688 -64.496094 49.285156 -64.496094 C 40.25 -64.496094 32.882812 -58.871094 29.871094 -52.53125 L 29.871094 -64.496094 L 29.078125 -64.496094 C 28.839844 -64.339844 28.523438 -64.179688 28.128906 -64.019531 C 22.503906 -61.800781 8.875 -57.683594 0.792969 -57.683594 Z M 0.792969 -56.890625 "/></g></g></g><g fill="#ffffff" fill-opacity="1"><g transform="translate(220.370231, 225.02511)"><g><path d="M 34.941406 1.503906 C 52.453125 1.503906 66.792969 -10.695312 66.792969 -31.457031 C 66.792969 -52.214844 52.53125 -64.496094 35.023438 -64.496094 C 17.511719 -64.496094 3.167969 -52.214844 3.167969 -31.457031 C 3.167969 -10.695312 17.429688 1.503906 34.941406 1.503906 Z M 28.921875 -31.535156 C 28.921875 -48.808594 28.285156 -62.753906 34.941406 -62.753906 C 41.597656 -62.753906 40.964844 -48.808594 40.964844 -31.535156 C 40.964844 -14.105469 41.597656 -0.160156 34.941406 -0.160156 C 28.285156 -0.160156 28.921875 -14.105469 28.921875 -31.535156 Z M 28.921875 -31.535156 "/></g></g></g><g fill="#ffffff" fill-opacity="1"><g transform="translate(286.607546, 225.02511)"><g><path d="M 0.792969 -57.683594 L 0.792969 -56.890625 C 2.773438 -56.890625 6.101562 -53.878906 6.101562 -46.429688 L 6.101562 -11.09375 C 6.101562 -5.230469 4.675781 -1.742188 0.949219 -0.792969 L 0.949219 0 L 35.023438 0 L 35.023438 -0.792969 C 31.296875 -1.742188 29.871094 -5.230469 29.871094 -11.09375 L 29.871094 -46.035156 C 29.871094 -51.421875 32.960938 -56.414062 37.953125 -56.414062 C 42.945312 -56.414062 43.816406 -50.789062 43.816406 -46.429688 L 43.816406 -11.09375 C 43.816406 -5.230469 42.390625 -1.742188 38.667969 -0.792969 L 38.667969 0 L 72.738281 0 L 72.738281 -0.792969 C 69.011719 -1.742188 67.585938 -5.230469 67.585938 -11.09375 L 67.585938 -43.421875 C 67.585938 -51.660156 65.449219 -64.496094 49.285156 -64.496094 C 40.25 -64.496094 32.882812 -58.871094 29.871094 -52.53125 L 29.871094 -64.496094 L 29.078125 -64.496094 C 28.839844 -64.339844 28.523438 -64.179688 28.128906 -64.019531 C 22.503906 -61.800781 8.875 -57.683594 0.792969 -57.683594 Z M 0.792969 -57.683594 "/></g></g></g><g fill="#080403" fill-opacity="1"><g transform="translate(138.320323, 251.659871)"><g><path d="M 14.484375 0 L 14.46875 -9.796875 L 9.609375 -1.640625 L 8.71875 -1.640625 L 3.859375 -9.75 L 3.859375 0 L 2.015625 0 L 2.015625 -13.453125 L 3.59375 -13.453125 L 9.203125 -4 L 14.734375 -13.453125 L 16.3125 -13.453125 L 16.328125 0 Z M 14.484375 0 "/></g></g></g><g fill="#080403" fill-opacity="1"><g transform="translate(163.499518, 251.659871)"><g><path d="M 10.59375 -3.359375 L 3.4375 -3.359375 L 1.953125 0 L -0.015625 0 L 6.078125 -13.453125 L 7.96875 -13.453125 L 14.09375 0 L 12.0625 0 Z M 9.921875 -4.90625 L 7.015625 -11.5 L 4.109375 -4.90625 Z M 9.921875 -4.90625 "/></g></g></g><g fill="#080403" fill-opacity="1"><g transform="translate(184.392976, 251.659871)"><g><path d="M 6.40625 -5.984375 L 3.9375 -3.484375 L 3.9375 0 L 2.015625 0 L 2.015625 -13.453125 L 3.9375 -13.453125 L 3.9375 -5.9375 L 11.25 -13.453125 L 13.4375 -13.453125 L 7.6875 -7.40625 L 13.796875 0 L 11.546875 0 Z M 6.40625 -5.984375 "/></g></g></g><g fill="#080403" fill-opacity="1"><g transform="translate(205.036597, 251.659871)"><g><path d="M 11.78125 -1.671875 L 11.78125 0 L 2.015625 0 L 2.015625 -13.453125 L 11.515625 -13.453125 L 11.515625 -11.78125 L 3.9375 -11.78125 L 3.9375 -7.65625 L 10.6875 -7.65625 L 10.6875 -6.015625 L 3.9375 -6.015625 L 3.9375 -1.671875 Z M 11.78125 -1.671875 "/></g></g></g><g fill="#080403" fill-opacity="1"><g transform="translate(224.738507, 251.659871)"><g><path d="M 5.9375 0.15625 C 4.925781 0.15625 3.945312 0 3 -0.3125 C 2.0625 -0.625 1.320312 -1.03125 0.78125 -1.53125 L 1.5 -3.03125 C 2.007812 -2.570312 2.664062 -2.195312 3.46875 -1.90625 C 4.269531 -1.625 5.09375 -1.484375 5.9375 -1.484375 C 7.050781 -1.484375 7.882812 -1.671875 8.4375 -2.046875 C 8.988281 -2.421875 9.265625 -2.925781 9.265625 -3.5625 C 9.265625 -4.019531 9.113281 -4.390625 8.8125 -4.671875 C 8.507812 -4.960938 8.132812 -5.1875 7.6875 -5.34375 C 7.25 -5.5 6.628906 -5.671875 5.828125 -5.859375 C 4.816406 -6.109375 4 -6.351562 3.375 -6.59375 C 2.75 -6.832031 2.210938 -7.203125 1.765625 -7.703125 C 1.328125 -8.210938 1.109375 -8.898438 1.109375 -9.765625 C 1.109375 -10.484375 1.296875 -11.128906 1.671875 -11.703125 C 2.054688 -12.273438 2.632812 -12.734375 3.40625 -13.078125 C 4.175781 -13.429688 5.128906 -13.609375 6.265625 -13.609375 C 7.054688 -13.609375 7.835938 -13.503906 8.609375 -13.296875 C 9.378906 -13.085938 10.039062 -12.796875 10.59375 -12.421875 L 9.953125 -10.875 C 9.390625 -11.238281 8.785156 -11.507812 8.140625 -11.6875 C 7.503906 -11.875 6.878906 -11.96875 6.265625 -11.96875 C 5.171875 -11.96875 4.351562 -11.769531 3.8125 -11.375 C 3.269531 -10.976562 3 -10.46875 3 -9.84375 C 3 -9.375 3.148438 -8.992188 3.453125 -8.703125 C 3.765625 -8.421875 4.144531 -8.195312 4.59375 -8.03125 C 5.050781 -7.875 5.671875 -7.707031 6.453125 -7.53125 C 7.460938 -7.289062 8.273438 -7.046875 8.890625 -6.796875 C 9.515625 -6.554688 10.046875 -6.1875 10.484375 -5.6875 C 10.921875 -5.1875 11.140625 -4.515625 11.140625 -3.671875 C 11.140625 -2.960938 10.945312 -2.316406 10.5625 -1.734375 C 10.1875 -1.148438 9.609375 -0.6875 8.828125 -0.34375 C 8.046875 -0.0078125 7.082031 0.15625 5.9375 0.15625 Z M 5.9375 0.15625 "/></g></g></g></svg>